<svg width="75" height="64" viewBox="0 0 75 64" fill="none" xmlns="http://www.w3.org/2000/svg">
<path d="M37.028 63.3636C50.3485 58.7288 58.3382 57.0326 74.0559 56.5454L72.4825 51.3007C72.2363 51.3004 71.9915 51.3015 71.7482 51.304C69.5593 51.3259 67.4849 51.4575 65.4545 51.7191C62.2896 52.1268 59.2317 52.8503 56.014 53.9661C53.0692 54.9873 49.9905 56.3371 46.5734 58.0742C43.6764 59.547 40.5361 61.2982 37.028 63.3636Z" fill="#15469A"/>
<path d="M45.4195 10.0769C39.7915 10.3681 38.1527 11.958 37.1328 16.6853V19.5175H46.6783V10.0769H45.4195Z" fill="#189EFF"/>
<path d="M46.6783 38.3986V47.8392H56.1188V38.3986H46.6783Z" fill="#189EFF"/>
<path d="M37.1328 62.6294C40.641 60.5639 43.7812 58.8127 46.6783 57.34V47.8392H37.1328V62.6294Z" fill="#189EFF"/>
<path d="M56.1188 19.5175H46.6783V28.9581H56.1188V19.5175Z" fill="#189EFF"/>
<path d="M56.1189 53.2318C59.3366 52.116 62.3945 51.3926 65.5595 50.9849V47.8392H56.1189V53.2318Z" fill="#073585"/>
<path d="M46.6783 57.34C50.0954 55.6028 53.1741 54.253 56.1189 53.2318V47.8392H46.6783V57.34Z" fill="#0D61D2"/>
<path d="M37.1328 28.958V19.5175H46.6783V28.958H37.1328Z" fill="#6AC1FF"/>
<path d="M37.1328 38.3986V28.958H46.6783V38.3986H37.1328Z" fill="#35AAFF"/>
<path d="M56.1189 19.5175V10.0769H65.5595V19.5175H56.1189Z" fill="#1C6CD9"/>
<path d="M37.1328 47.8391V38.3986H46.6783V47.8391H37.1328Z" fill="#6AC1FF"/>
<path d="M46.6783 19.5175V10.0769H56.1189V19.5175H46.6783Z" fill="#6CC1FF"/>
<path d="M46.6783 38.3986V28.958H56.1189V38.3986H46.6783Z" fill="#53B6FF"/>
<path d="M56.1189 28.958V19.5175H65.5595V28.958H56.1189Z" fill="#49AFF9"/>
<path d="M65.5594 29.5874V20.1469H75V29.5874H65.5594Z" fill="#125FE3"/>
<path d="M56.1189 38.3986V28.958H65.5595V38.3986H56.1189Z" fill="#0F67DE"/>
<path d="M65.5594 38.3986V28.958H75V38.3986H65.5594Z" fill="#004BAF"/>
<path d="M56.1189 47.8391V38.3986H65.5595V47.8391H56.1189Z" fill="#0C4EBF"/>
<path d="M65.5594 10.0769V0.636353H75V10.0769H65.5594Z" fill="#4389E8"/>
<path d="M37.028 63.2587C23.7074 58.6239 15.7177 56.9277 -1.52588e-05 56.4406L1.57341 51.1958C2.14047 51.1952 2.69952 51.2017 3.25173 51.2156C5.65651 51.2759 7.93167 51.4762 10.1748 51.8445C12.8232 52.2794 15.427 52.9484 18.1468 53.8977C20.9387 54.8722 23.8528 56.142 27.0629 57.7571C30.076 59.2731 33.3497 61.0932 37.028 63.2587Z" fill="#15469A"/>
<path d="M10.2797 33.7832V51.2152C7.59787 50.8029 6.07848 50.6639 3.35659 50.5862V33.7832H10.2797Z" fill="#15469A"/>
<path fill-rule="evenodd" clip-rule="evenodd" d="M18.2517 53.2684V26.5455H10.8041V51.3503C13.7856 51.9359 15.4213 52.3445 18.2517 53.2684Z" fill="#15469A"/>
<path fill-rule="evenodd" clip-rule="evenodd" d="M27.1678 57.1278V17.7343H18.8811V53.5408C22.1849 54.8024 24.0032 55.5799 27.1678 57.1278Z" fill="#15469A"/>
<path fill-rule="evenodd" clip-rule="evenodd" d="M37.1328 62.6294V8.6084H28.0069V57.5911C31.5466 59.4255 33.543 60.5195 37.1328 62.6294Z" fill="#15469A"/>
</svg>
